<svg xmlns="http://www.w3.org/2000/svg" viewBox="0 0 320 380" role="img" aria-label="E2IA">
  <defs>
    <linearGradient id="field" x1="0%" y1="0%" x2="100%" y2="100%">
      <stop offset="0%" stop-color="#2d6a3e"/>
      <stop offset="100%" stop-color="#4a9b5f"/>
    </linearGradient>
  </defs>
  <circle cx="160" cy="130" r="118" fill="none" stroke="#1f4d2d" stroke-width="3"/>
  <path d="M42 130 A118 118 0 0 0 278 130" fill="none" stroke="#e67e22" stroke-width="4"/>
  <text x="160" y="118" text-anchor="middle" font-family="Arial,Helvetica,sans-serif" font-weight="800" font-size="54">
    <tspan fill="#1f4d2d">E</tspan><tspan fill="#e67e22">2</tspan><tspan fill="#1f4d2d">IA</tspan>
  </text>
  <ellipse cx="118" cy="78" rx="10" ry="14" fill="#4a9b5f" transform="rotate(-25 118 78)"/>
  <ellipse cx="132" cy="72" rx="9" ry="13" fill="#5cb86f" transform="rotate(-10 132 72)"/>
  <circle cx="148" cy="68" r="7" fill="#e67e22"/>
  <path d="M200 72c18-8 34-4 42 8-14 2-28 0-42-8z" fill="none" stroke="#1f4d2d" stroke-width="2"/>
  <path d="M55 175c30 28 70 42 105 42s75-14 105-42c-8 38-48 68-105 68s-97-30-105-68z" fill="url(#field)"/>
  <path d="M70 210h180" stroke="#8fd4a0" stroke-width="3" stroke-linecap="round"/>
  <path d="M85 228h150" stroke="#8fd4a0" stroke-width="3" stroke-linecap="round"/>
  <path d="M100 246h120" stroke="#8fd4a0" stroke-width="3" stroke-linecap="round"/>
  <text x="160" y="300" text-anchor="middle" fill="#1f4d2d" font-family="Arial,Helvetica,sans-serif" font-weight="700" font-size="15" letter-spacing="1">ENTREPRISE IVOIRIENNE</text>
  <text x="160" y="322" text-anchor="middle" fill="#e67e22" font-family="Arial,Helvetica,sans-serif" font-weight="700" font-size="12" letter-spacing="0.5"> D'INNOVATION AGRICOLE </text>
  <text x="160" y="345" text-anchor="middle" fill="#1f4d2d" font-family="Arial,Helvetica,sans-serif" font-size="9.5" letter-spacing="0.3">INNOVER " PRODUIRE " NOURRIR DURABLEMENT</text>
  <path d="M95 360h130" stroke="#1f4d2d" stroke-width="2" stroke-linecap="round"/>
</svg>
